HIERARCHY
ROOT hip
{
  OFFSET 0.00112043 5.09927 -9.65472
  CHANNELS 6 Xposition Yposition Zposition Zrotation Xrotation Yrotation
  JOINT abdomen
  {
    OFFSET 0 -1.186 -1.5018
    CHANNELS 3 Zrotation Xrotation Yrotation
    JOINT abdomen2
    {
      OFFSET 0 9.964 0.2134
      CHANNELS 3 Zrotation Xrotation Yrotation
      JOINT chest
      {
        OFFSET 0 13.134 -3.2573
        CHANNELS 3 Zrotation Xrotation Yrotation
        JOINT neck
        {
          OFFSET 0 20.686 -1.6905
          CHANNELS 3 Zrotation Xrotation Yrotation
          JOINT head
          {
            OFFSET 0 7.238 -0.1237
            CHANNELS 3 Zrotation Xrotation Yrotation
            End Site
            {
              OFFSET 0 0 0
            }
          }
        }
        JOINT lCollar
        {
          OFFSET 1.7069 20.075 5.0056
          CHANNELS 3 Zrotation Xrotation Yrotation
          JOINT lShldr
          {
            OFFSET 13.6458 -0.047 -4.849
            CHANNELS 3 Zrotation Xrotation Yrotation
            JOINT lForeArm
            {
              OFFSET 28.3255 -0.9759 2.2888
              CHANNELS 3 Zrotation Xrotation Yrotation
              JOINT lHand
              {
                OFFSET 22.1583 -0.53 10.8316
                CHANNELS 3 Zrotation Xrotation Yrotation
                JOINT lThumb1
                {
                  OFFSET 0.786 0.112 2.5817
                  CHANNELS 3 Zrotation Xrotation Yrotation
                  JOINT lThumb2
                  {
                    OFFSET 0.3601 -0.878 4.2331
                    CHANNELS 3 Zrotation Xrotation Yrotation
                    JOINT lThumb2_End
                    {
                      OFFSET 1.8127 -1.216 2.2227
                      CHANNELS 3 Zrotation Xrotation Yrotation
                      End Site
                      {
                        OFFSET 0.0181 -0.0122 0.0222
                      }
                    }
                  }
                }
                JOINT lCarpal1
                {
                  OFFSET 0.9571 1.114 1.7695
                  CHANNELS 3 Zrotation Xrotation Yrotation
                  JOINT lIndex1
                  {
                    OFFSET 4.1246 0.487 4.1451
                    CHANNELS 3 Zrotation Xrotation Yrotation
                    JOINT lIndex2
                    {
                      OFFSET 3.4052 -1.454 2.7682
                      CHANNELS 3 Zrotation Xrotation Yrotation
                      JOINT lIndex2_End
                      {
                        OFFSET 1.4531 -1.795 1.2713
                        CHANNELS 3 Zrotation Xrotation Yrotation
                        End Site
                        {
                          OFFSET 0.0145 -0.0179 0.0127
                        }
                      }
                    }
                  }
                  JOINT lMid1
                  {
                    OFFSET 5.6954 0.21 2.1184
                    CHANNELS 3 Zrotation Xrotation Yrotation
                    JOINT lMid2
                    {
                      OFFSET 3.9766 -1.54 2.3863
                      CHANNELS 3 Zrotation Xrotation Yrotation
                      JOINT lMid2_End
                      {
                        OFFSET 1.4042 -1.926 1.125
                        CHANNELS 3 Zrotation Xrotation Yrotation
                        End Site
                        {
                          OFFSET 0.014 -0.0193 0.0113
                        }
                      }
                    }
                  }
                }
                JOINT lCarpal2
                {
                  OFFSET 2.0956 0.66 -0.3894
                  CHANNELS 3 Zrotation Xrotation Yrotation
                  JOINT lRing1
                  {
                    OFFSET 5.0395 -0.09 2.4971
                    CHANNELS 3 Zrotation Xrotation Yrotation
                    JOINT lRing2
                    {
                      OFFSET 3.7921 -1.552 1.4806
                      CHANNELS 3 Zrotation Xrotation Yrotation
                      JOINT lRing2_End
                      {
                        OFFSET 1.4655 -1.808 0.9609
                        CHANNELS 3 Zrotation Xrotation Yrotation
                        End Site
                        {
                          OFFSET 0.0147 -0.0181 0.0096
                        }
                      }
                    }
                  }
                  JOINT lPinky1
                  {
                    OFFSET 4.9141 -1.269 0.3591
                    CHANNELS 3 Zrotation Xrotation Yrotation
                    JOINT lPinky2
                    {
                      OFFSET 3.1477 -1.685 0.8462
                      CHANNELS 3 Zrotation Xrotation Yrotation
                      JOINT lPinky2_End
                      {
                        OFFSET 0.8055 -1.585 0.7955
                        CHANNELS 3 Zrotation Xrotation Yrotation
                        End Site
                        {
                          OFFSET 0.0081 -0.0158 0.008
                        }
                      }
                    }
                  }
                }
              }
            }
          }
        }
        JOINT rCollar
        {
          OFFSET -1.7069 20.075 5.0056
          CHANNELS 3 Zrotation Xrotation Yrotation
          JOINT rShldr
          {
            OFFSET -13.6458 -0.047 -4.849
            CHANNELS 3 Zrotation Xrotation Yrotation
            JOINT rForeArm
            {
              OFFSET -28.3255 -0.9759 2.2888
              CHANNELS 3 Zrotation Xrotation Yrotation
              JOINT rHand
              {
                OFFSET -22.1583 -0.53 10.8316
                CHANNELS 3 Zrotation Xrotation Yrotation
                JOINT rThumb1
                {
                  OFFSET -0.786 0.112 2.5817
                  CHANNELS 3 Zrotation Xrotation Yrotation
                  JOINT rThumb2
                  {
                    OFFSET -0.3601 -0.878 4.2331
                    CHANNELS 3 Zrotation Xrotation Yrotation
                    JOINT rThumb2_End
                    {
                      OFFSET -1.8127 -1.216 2.2227
                      CHANNELS 3 Zrotation Xrotation Yrotation
                      End Site
                      {
                        OFFSET -0.0181 -0.0122 0.0222
                      }
                    }
                  }
                }
                JOINT rCarpal1
                {
                  OFFSET -0.9571 1.114 1.7695
                  CHANNELS 3 Zrotation Xrotation Yrotation
                  JOINT rIndex1
                  {
                    OFFSET -4.1246 0.487 4.1451
                    CHANNELS 3 Zrotation Xrotation Yrotation
                    JOINT rIndex2
                    {
                      OFFSET -3.4052 -1.454 2.7682
                      CHANNELS 3 Zrotation Xrotation Yrotation
                      JOINT rIndex2_End
                      {
                        OFFSET -1.4531 -1.795 1.2713
                        CHANNELS 3 Zrotation Xrotation Yrotation
                        End Site
                        {
                          OFFSET -0.0145 -0.018 0.0127
                        }
                      }
                    }
                  }
                  JOINT rMid1
                  {
                    OFFSET -5.6954 0.21 2.1184
                    CHANNELS 3 Zrotation Xrotation Yrotation
                    JOINT rMid2
                    {
                      OFFSET -3.9766 -1.54 2.3863
                      CHANNELS 3 Zrotation Xrotation Yrotation
                      JOINT rMid2_End
                      {
                        OFFSET -1.4042 -1.926 1.125
                        CHANNELS 3 Zrotation Xrotation Yrotation
                        End Site
                        {
                          OFFSET -0.014 -0.0193 0.0113
                        }
                      }
                    }
                  }
                }
                JOINT rCarpal2
                {
                  OFFSET -2.0956 0.66 -0.3894
                  CHANNELS 3 Zrotation Xrotation Yrotation
                  JOINT rRing1
                  {
                    OFFSET -5.0395 -0.09 2.4971
                    CHANNELS 3 Zrotation Xrotation Yrotation
                    JOINT rRing2
                    {
                      OFFSET -3.7921 -1.552 1.4806
                      CHANNELS 3 Zrotation Xrotation Yrotation
                      JOINT rRing2_End
                      {
                        OFFSET -1.4655 -1.808 0.9609
                        CHANNELS 3 Zrotation Xrotation Yrotation
                        End Site
                        {
                          OFFSET -0.0147 -0.0181 0.0096
                        }
                      }
                    }
                  }
                  JOINT rPinky1
                  {
                    OFFSET -4.9141 -1.269 0.3592
                    CHANNELS 3 Zrotation Xrotation Yrotation
                    JOINT rPinky2
                    {
                      OFFSET -3.1477 -1.685 0.8462
                      CHANNELS 3 Zrotation Xrotation Yrotation
                      JOINT rPinky2_End
                      {
                        OFFSET -0.8055 -1.585 0.7955
                        CHANNELS 3 Zrotation Xrotation Yrotation
                        End Site
                        {
                          OFFSET -0.0081 -0.0158 0.008
                        }
                      }
                    }
                  }
                }
              }
            }
          }
        }
      }
    }
  }
  JOINT lThigh
  {
    OFFSET 8.367 -8.2066 0.5982
    CHANNELS 3 Zrotation Xrotation Yrotation
    JOINT lShin
    {
      OFFSET 2.1923 -43.463 -0.4932
      CHANNELS 3 Zrotation Xrotation Yrotation
      JOINT lFoot
      {
        OFFSET 0.7333 -45.8593 -2.6451
        CHANNELS 3 Zrotation Xrotation Yrotation
        End Site
        {
          OFFSET 2.6618 -4.2699 12.3931
        }
      }
    }
  }
  JOINT rThigh
  {
    OFFSET -8.367 -8.2066 0.5982
    CHANNELS 3 Zrotation Xrotation Yrotation
    JOINT rShin
    {
      OFFSET -2.1923 -43.463 -0.4931
      CHANNELS 3 Zrotation Xrotation Yrotation
      JOINT rFoot
      {
        OFFSET -0.7333 -45.8593 -2.6451
        CHANNELS 3 Zrotation Xrotation Yrotation
        End Site
        {
          OFFSET -2.6618 -4.2699 12.3931
        }
      }
    }
  }
}
MOTION
Frames:	4
Frame Time:	0.0333333
0 91.7903 2.51682 0 0 -0 0 0 -0 0 0 -0 0 0 -0 0 0 -0 0 0 -0 0 0 -0 1.66051 0.0835086 5.75766 -0.0175111 0.895433 15.7816 7.95139e-016 -1.98785e-016 -0 5.46658e-016 -3.97569e-016 -0 5.96354e-016 0 -0 3.97569e-016 1.98785e-016 9.54166e-015 1.49089e-016 -3.97569e-016 -0 6.4605e-016 0 3.18055e-015 5.96354e-016 0 3.18055e-015 8.94531e-016 -1.98785e-016 6.36111e-015 6.4605e-016 0 3.18055e-015 5.96354e-016 0 3.18055e-015 8.94531e-016 -1.98785e-016 6.36111e-015 1.49089e-016 -3.97569e-016 -0 6.4605e-016 0 3.18055e-015 5.96354e-016 0 3.18055e-015 8.94531e-016 -1.98785e-016 6.36111e-015 6.4605e-016 0 3.18055e-015 5.96354e-016 0 3.18055e-015 8.94531e-016 -1.98785e-016 6.36111e-015 0 0 -0 -1.4496 0.0636048 -5.0245 -1.74811 1.20616 -16.8394 -1.19271e-015 1.98785e-016 -3.18055e-015 -3.97569e-016 1.98785e-016 -3.18055e-015 -2.98177e-016 1.98785e-016 -3.18055e-015 -2.98177e-016 3.97569e-016 -0 4.96962e-016 0 -6.36111e-015 -9.93923e-017 3.97569e-016 -0 -8.94531e-016 5.96354e-016 -0 -3.97569e-016 3.97569e-016 -0 -9.93923e-017 3.97569e-016 -0 -8.94531e-016 5.96354e-016 -0 -3.97569e-016 3.97569e-016 -0 4.96962e-016 0 -6.36111e-015 -9.93923e-017 3.97569e-016 -0 -8.94531e-016 5.96354e-016 -0 -3.97569e-016 3.97569e-016 -0 -9.93923e-017 3.97569e-016 -0 -8.94531e-016 5.96354e-016 -0 -3.97569e-016 3.97569e-016 -0 -4.66111 -0.998717 0.12318 0.00986924 1.54847 0.176523 4.65186 -0.572283 -0.254274 4.66111 -0.998765 -0.123176 -0.00986867 1.54869 -0.176537 -4.65186 -0.572453 0.25427 
0.00318493 8.35753 8.90442 0 75.5707 -0 -0.347688 4.01194 -0.0447343 -0.694792 8.02406 -0.0652336 -0.694792 8.02408 -0.0652331 0.175282 -25.6569 0.103667 0.0677106 -23.7568 0.0269598 -8.50283 -0.206586 5.58602e-006 -83.7958 -10.2012 -61.5354 46.0715 -38.6148 -97.1183 -4.06601 9.83346 -0.481852 -7.95139e-016 3.18055e-015 -0 -2.38542e-015 4.37326e-015 -3.18055e-015 -1.59028e-015 1.98785e-015 -3.18055e-015 7.95139e-016 -7.95139e-016 3.18055e-015 7.95139e-016 -2.78299e-015 6.36111e-015 -1.59028e-015 4.77083e-015 -0 -3.18055e-015 7.95139e-016 -0 7.95139e-016 -2.78299e-015 6.36111e-015 -1.59028e-015 4.77083e-015 -0 -3.18055e-015 7.95139e-016 -0 7.95139e-016 -7.95139e-016 3.18055e-015 7.95139e-016 -2.78299e-015 6.36111e-015 -1.59028e-015 4.77083e-015 -0 -3.18055e-015 7.95139e-016 -0 7.95139e-016 -2.78299e-015 6.36111e-015 -1.59028e-015 4.77083e-015 -0 -3.18055e-015 7.95139e-016 -0 8.4991 -0.206843 -6.42714e-006 83.8933 -10.019 62.2831 -46.276 -39.638 96.3492 3.9813 9.83911 0.750406 -2.38542e-015 1.98785e-015 -3.18055e-015 -1.54487e-031 -2.78299e-015 -3.18055e-015 -0 -3.97569e-016 -0 -7.95139e-016 -1.19271e-015 -3.18055e-015 3.18055e-015 1.59028e-015 1.59028e-014 -7.95139e-016 -3.97569e-016 3.18055e-015 0 7.95139e-016 -0 3.18055e-015 1.59028e-015 1.59028e-014 -7.95139e-016 -3.97569e-016 3.18055e-015 0 7.95139e-016 -0 -7.95139e-016 -1.19271e-015 -3.18055e-015 3.18055e-015 1.59028e-015 1.59028e-014 -7.95139e-016 -3.97569e-016 3.18055e-015 0 7.95139e-016 -0 3.18055e-015 1.59028e-015 1.59028e-014 -7.95139e-016 -3.97569e-016 3.18055e-015 0 7.95139e-016 -0 120.213 -30.2703 105.19 -177.545 43.4268 -172.248 11.0705 28.2743 4.7614 -120.213 -30.204 -105.197 177.655 43.4357 172.167 -11.0236 28.8965 -4.76889 
0.00255065 13.3727 9.28734 0 71.6204 -0 -0.323412 3.65072 -0.0494822 -0.64563 7.30167 -0.0785057 -0.64563 7.30168 -0.0785056 0.792591 -24.6912 0.473086 0.538363 -22.4226 0.216257 -8.00265 -0.194448 1.79574e-006 -78.133 -10.8867 -57.6143 45.995 -31.4628 -92.8728 -3.82958 9.25575 -0.444996 5.04812e-007 -6.74376e-007 -1.14049e-007 2.86319e-006 -1.0135e-006 -5.00944e-007 -1.34875e-006 -1.00962e-006 1.58797e-007 -8.94531e-016 -3.23025e-015 6.36111e-015 5.04812e-007 -6.74376e-007 -1.14049e-007 2.86319e-006 -1.0135e-006 -5.00944e-007 -1.34875e-006 -1.00962e-006 1.58797e-007 5.04812e-007 -6.74376e-007 -1.14049e-007 2.86319e-006 -1.0135e-006 -5.00944e-007 -1.34875e-006 -1.00962e-006 1.58797e-007 -8.94531e-016 -3.23025e-015 6.36111e-015 5.04812e-007 -6.74376e-007 -1.14049e-007 2.86319e-006 -1.0135e-006 -5.00944e-007 -1.34875e-006 -1.00962e-006 1.58797e-007 5.04812e-007 -6.74376e-007 -1.14049e-007 2.86319e-006 -1.0135e-006 -5.00944e-007 -1.34875e-006 -1.00962e-006 1.58797e-007 7.99916 -0.194702 -3.81805e-007 78.2434 -10.7118 58.3657 -46.2745 -32.506 92.0292 3.7511 9.26135 0.697251 -5.20288e-007 -6.64603e-007 1.01399e-007 -5.20288e-007 -6.64603e-007 1.01399e-007 -1.55922e-015 -6.73538e-015 -1.59028e-015 5.03174e-016 9.59757e-016 -1.59028e-015 -5.20288e-007 -6.64603e-007 1.01399e-007 -5.20288e-007 -6.64603e-007 1.01399e-007 1.2424e-017 -6.74781e-015 -0 -5.20288e-007 -6.64603e-007 1.01399e-007 -5.20288e-007 -6.64603e-007 1.01399e-007 1.2424e-017 -6.74781e-015 -0 5.03174e-016 9.59757e-016 -1.59028e-015 -5.20288e-007 -6.64603e-007 1.01399e-007 -5.20288e-007 -6.64603e-007 1.01399e-007 1.2424e-017 -6.74781e-015 -0 -5.20288e-007 -6.64603e-007 1.01399e-007 -5.20288e-007 -6.64603e-007 1.01399e-007 1.2424e-017 -6.74781e-015 -0 111.402 -34.1107 98.8756 -177.079 51.2785 -174.216 10.3099 25.688 4.01442 -111.405 -34.0465 -98.8872 177.189 51.2895 174.139 -10.2787 26.2536 -4.01814 
0.00260342 13.3462 9.29281 0 72.0883 -0 -0.322966 3.53233 -0.0514753 -0.644589 7.06492 -0.0831942 -0.64459 7.06492 -0.0831943 1.39526 -25.2031 0.837236 0.987927 -22.4811 0.397495 -8.00266 -0.194446 2.2585e-006 -78.133 -10.8867 -57.6143 45.995 -31.4628 -92.8728 -3.82957 9.25575 -0.444968 8.43643e-007 1.68416e-006 -4.67556e-008 1.00987e-006 -1.34858e-006 -2.27003e-007 -5.04936e-007 6.74289e-007 1.13501e-007 -2.98177e-015 5.51627e-015 -6.36111e-015 8.43643e-007 1.68416e-006 -4.67556e-008 1.00987e-006 -1.34858e-006 -2.27003e-007 -5.04936e-007 6.74289e-007 1.13501e-007 8.43643e-007 1.68416e-006 -4.67556e-008 1.00987e-006 -1.34858e-006 -2.27003e-007 -5.04936e-007 6.74289e-007 1.13501e-007 -2.98177e-015 5.51627e-015 -6.36111e-015 8.43643e-007 1.68416e-006 -4.67556e-008 1.00987e-006 -1.34858e-006 -2.27003e-007 -5.04936e-007 6.74289e-007 1.13501e-007 8.43643e-007 1.68416e-006 -4.67556e-008 1.00987e-006 -1.34858e-006 -2.27003e-007 -5.04936e-007 6.74289e-007 1.13501e-007 7.99916 -0.194682 -3.60305e-006 78.2434 -10.7119 58.3657 -46.2745 -32.5061 92.0292 3.75109 9.26135 0.697245 1.32903e-006 -1.04079e-006 -1.59563e-007 -6.40203e-007 2.60373e-007 -1.09424e-006 -9.20988e-007 -2.25393e-006 1.39674e-006 -6.08778e-016 -5.87036e-016 -0 1.32903e-006 -1.04079e-006 -1.59563e-007 -6.40203e-007 2.60373e-007 -1.09424e-006 -9.20988e-007 -2.25393e-006 1.39674e-006 1.32903e-006 -1.04079e-006 -1.59563e-007 -6.40203e-007 2.60373e-007 -1.09424e-006 -9.20988e-007 -2.25393e-006 1.39674e-006 -6.08778e-016 -5.87036e-016 -0 1.32903e-006 -1.04079e-006 -1.59563e-007 -6.40203e-007 2.60373e-007 -1.09424e-006 -9.20988e-007 -2.25393e-006 1.39674e-006 1.32903e-006 -1.04079e-006 -1.59563e-007 -6.40203e-007 2.60373e-007 -1.09424e-006 -9.20988e-007 -2.25393e-006 1.39674e-006 111.951 -33.8621 99.421 -177.081 51.2982 -174.189 9.91925 25.8198 4.21014 -111.953 -33.8 -99.4322 177.191 51.3088 174.113 -9.88707 26.3675 -4.21644 
